<svg width="32" height="33" viewBox="0 0 32 33" fill="none" xmlns="http://www.w3.org/2000/svg">
<rect y="0.539062" width="32" height="32" rx="1" fill="white"/>
<path fill-rule="evenodd" clip-rule="evenodd" d="M20.0153 16.3313C20.2811 15.6739 19.7973 14.9564 19.0882 14.9564H18.9047C18.3524 14.9564 17.9047 14.5087 17.9047 13.9564V12.8465C17.9047 12.2641 18.3826 12.319 18.9714 12.319H19.038C19.5903 12.319 20.038 11.8713 20.038 11.319V10.6816C20.038 10.1294 19.5903 9.68164 19.038 9.68164H17.9047C17.056 9.68164 16.2421 10.0151 15.6419 10.6086C15.0418 11.2021 14.7047 12.0071 14.7047 12.8465V13.9564C14.7047 14.5087 14.257 14.9564 13.7047 14.9564H13.5713C13.0191 14.9564 12.5714 15.4041 12.5714 15.9564V16.5937C12.5714 17.146 13.0191 17.5937 13.5714 17.5937H13.7047C14.257 17.5937 14.7047 18.0414 14.7047 18.5937V22.3959C14.7047 22.9482 15.1524 23.3959 15.7047 23.3959H16.9047C17.457 23.3959 17.9047 22.9482 17.9047 22.3959V18.5494C17.9047 18.0216 18.3325 17.5937 18.8603 17.5937C19.2498 17.5937 19.6003 17.3574 19.7463 16.9964L20.0153 16.3313Z" fill="#9893A3"/>
</svg>
