<svg width="32" height="33" viewBox="0 0 32 33" fill="none" xmlns="http://www.w3.org/2000/svg">
<rect y="0.539062" width="32" height="32" rx="1" fill="white"/>
<g clip-path="url(#clip0_172_3413)">
<path d="M24.2415 11.7287C23.8095 12.3714 23.2794 12.9192 22.6514 13.3722C22.6576 13.4937 22.6607 13.631 22.6607 13.7842C22.6607 14.6351 22.5366 15.487 22.2885 16.34C22.0404 17.193 21.6614 18.0094 21.1515 18.7893C20.6416 19.5692 20.0342 20.2602 19.3294 20.8621C18.6246 21.4641 17.7773 21.9441 16.7876 22.302C15.798 22.66 14.7373 22.839 13.6057 22.839C11.8395 22.839 10.2131 22.3622 8.72638 21.4086C8.99026 21.438 9.24334 21.4527 9.48562 21.4527C10.9611 21.4527 12.2789 20.9982 13.4391 20.0893C12.7511 20.0767 12.135 19.8649 11.5908 19.454C11.0465 19.0431 10.672 18.518 10.4671 17.8788C10.6696 17.9173 10.8694 17.9366 11.0666 17.9366C11.3504 17.9366 11.6297 17.8996 11.9045 17.8256C11.1703 17.6785 10.5613 17.3129 10.0773 16.7286C9.59342 16.1443 9.35146 15.4699 9.35146 14.7055V14.6661C9.80209 14.9156 10.2828 15.0483 10.7935 15.0642C10.3586 14.7743 10.0137 14.3962 9.75901 13.93C9.50426 13.4637 9.37689 12.9592 9.37689 12.4163C9.37689 11.8438 9.52036 11.3106 9.8073 10.8169C10.6057 11.7966 11.5731 12.5796 12.7095 13.166C13.846 13.7523 15.0652 14.078 16.3671 14.1429C16.3116 13.9115 16.2838 13.67 16.2837 13.4184C16.2837 12.54 16.5945 11.79 17.2162 11.1683C17.838 10.5467 18.588 10.2358 19.4664 10.2358C20.3861 10.2358 21.1607 10.5707 21.7903 11.2405C22.5097 11.098 23.1833 10.8402 23.811 10.4673C23.5692 11.2284 23.1032 11.8156 22.4129 12.2288C23.0473 12.1534 23.6568 11.9867 24.2415 11.7287H24.2415Z" fill="#9893A3"/>
</g>
<defs>
<clipPath id="clip0_172_3413">
<rect x="8.72736" y="10.2358" width="15.5152" height="12.6032" rx="1" fill="white"/>
</clipPath>
</defs>
</svg>
